<svg xmlns="http://www.w3.org/2000/svg" width="316.214" height="57.146" viewBox="0 0 316.214 57.146">
  <g id="Group_66" data-name="Group 66" transform="translate(-7.016 12.037)">
    <g id="Group_2" data-name="Group 2" transform="translate(7.053 -11.808)">
      <g id="Group_1" data-name="Group 1" transform="translate(12.213 5.401)">
        <path id="Path_1" data-name="Path 1" d="M206.4,282.731v-.257a136.423,136.423,0,0,0,16.561-1.437v1.694Zm6.4-4.021a5.087,5.087,0,0,0,.432-2.245v-42.4H206.4v-2.354h22.029l8.961,29.458,9.51-29.458h20.917v2.354h-6.632v25.246a111.3,111.3,0,0,1-12.558,7.434V234.724h-.157l-11.695,37.257q-4.125,1.569-8.447,2.89L215.9,234.227v42a7.792,7.792,0,0,0,.183,1.808q-1.63.35-3.283.672Zm48.387-11.644a84.807,84.807,0,0,1-12.558,6.763v6.39h-6.907v2.511h25.9V280.22h-6.436V267.066Zm-26.5,11.567q-2.394.629-4.855,1.155l.9,2.943H233.4Z" transform="translate(-206.399 -231.715)" fill="#fff" fill-rule="evenodd"/>
        <path id="Path_2" data-name="Path 2" d="M374.7,282.731V280.22h6.122v-9.133a82.447,82.447,0,0,0,12.95-8.429V280.22h7.456v2.511Zm6.122-19.09a108,108,0,0,0,12.989-8.868l-.039-20.7h7.836q5.985,0,9.117,2.8.224.2.441.418,2.125-2.7,4.112-5.572H374.543v2.354h6.279v29.571Zm37.157-31.268.438,14.177h-2.669a29.345,29.345,0,0,0-2.333-6.121q2.406-3.838,4.564-8.055Zm-10.786,16.849a85.7,85.7,0,0,1-8.186,8.9,6.86,6.86,0,0,1,2.993,1.8c1.452,1.531,2.329,4.055,2.6,7.587h2.59Z" transform="translate(-332.88 -231.715)" fill="#fff" fill-rule="evenodd"/>
      </g>
      <path id="Path_3" data-name="Path 3" d="M262.276,177.233c-16.169,43.65-53.23,59.538-105.168,55.658C207.009,230.683,243.068,213.236,262.276,177.233Z" transform="translate(-157.108 -177.233)" fill="#fff" stroke="#f36a10" stroke-miterlimit="2.613" stroke-width="0.216" fill-rule="evenodd"/>
      <path id="Path_4" data-name="Path 4" d="M237.864,213.217a74.1,74.1,0,0,0,5.77-5.383,77.3,77.3,0,0,0,7.4-8.941q1.843-2.6,3.528-5.409a97.27,97.27,0,0,0,7.718-16.251,100.013,100.013,0,0,1-7.852,12.457l-.245.33c-20.461,27.39-53.486,40.944-97.07,42.872q6.252.467,12.213.548a159.531,159.531,0,0,0,16.561-.6q3.667-.334,7.2-.85,2.059-.3,4.072-.667a104.389,104.389,0,0,0,14.4-3.649q2.922-.975,5.716-2.121,3.525-1.447,6.842-3.172,3.151-1.64,6.109-3.536A74.677,74.677,0,0,0,237.864,213.217Z" transform="translate(-157.108 -177.233)" fill="#fff" stroke="#1a1818" stroke-miterlimit="2.613" stroke-width="0.5" fill-rule="evenodd"/>
      <path id="Path_5" data-name="Path 5" d="M230.213,218.856a74.684,74.684,0,0,0,7.651-5.623,5.867,5.867,0,0,1,.577.467c1.452,1.338,2.329,3.546,2.6,6.635h2.59V207.847a77.329,77.329,0,0,0,7.4-8.945,28.611,28.611,0,0,1,1.16,3.108h2.669l-.3-8.519a97.329,97.329,0,0,0,7.718-16.258,100.064,100.064,0,0,1-7.852,12.462l-.245.33c-20.461,27.4-53.486,40.962-97.07,42.891q6.252.467,12.213.548v.186h16.561v-.791q3.667-.334,7.2-.851l.574,1.642h2.669l.829-2.309a104.344,104.344,0,0,0,14.4-3.651v3.764H204.64v2.2H237.67v-2.2h-7.456Z" transform="translate(-157.108 -177.233)" fill="#fff" stroke="#f36a10" stroke-miterlimit="2.613" stroke-width="0.5" fill-rule="evenodd"/>
      <path id="Path_6" data-name="Path 6" d="M157.538,232.947q6.027.438,11.784.516v.186h16.561v-.791q3.667-.334,7.2-.851l.574,1.642h2.669l.829-2.309a104.344,104.344,0,0,0,14.4-3.651v3.764H204.64v2.2H237.67v-2.2h-7.456v-12.6a74.684,74.684,0,0,0,7.651-5.623,5.867,5.867,0,0,1,.577.467c1.452,1.338,2.329,3.546,2.6,6.635h2.59V207.847a77.329,77.329,0,0,0,7.4-8.945,28.611,28.611,0,0,1,1.16,3.108h2.669l-.3-8.519a97.329,97.329,0,0,0,7.718-16.258,93.724,93.724,0,0,1-7.844,12.7q-.5.677-1.006,1.342c-20.184,26.414-53.455,39.75-96.214,41.637l-.1,0Z" transform="translate(-157.108 -177.233)" fill="#fff" stroke="#fff" stroke-width="1" fill-rule="evenodd"/>
    </g>
    <text id="MORTFUND" transform="translate(117.23 34.314)" fill="#fff" font-size="40" font-family="Bahnschrift"><tspan x="0" y="0">MORTFUND</tspan></text>
  </g>
</svg>
