<svg id="LinkedIn" xmlns="http://www.w3.org/2000/svg" width="37" height="37" viewBox="0 0 37 37">
  <circle id="Ellipse_5" data-name="Ellipse 5" cx="18.5" cy="18.5" r="18.5" fill="#0a66c2" opacity="0"/>
  <path id="Icon_awesome-linkedin-in" data-name="Icon awesome-linkedin-in" d="M4.529,20.233H.334V6.725H4.529ZM2.429,4.882A2.441,2.441,0,1,1,4.859,2.43,2.45,2.45,0,0,1,2.429,4.882Zm17.8,15.351H16.043V13.657c0-1.567-.032-3.577-2.181-3.577-2.181,0-2.515,1.7-2.515,3.464v6.689H7.157V6.725H11.18V8.568h.059a4.408,4.408,0,0,1,3.969-2.181c4.245,0,5.026,2.8,5.026,6.427v7.42Z" transform="translate(9.187 6.999)" fill="#fff"/>
</svg>
