<svg xmlns="http://www.w3.org/2000/svg" width="229.124" height="39.178" viewBox="0 0 229.124 39.178">
  <g id="Group_3" data-name="Group 3" transform="translate(-7.016 12.037)">
    <g id="Group_2" data-name="Group 2" transform="translate(7.053 -11.808)">
      <g id="Group_1" data-name="Group 1" transform="translate(8.324 3.681)">
        <path id="Path_1" data-name="Path 1" d="M206.4,266.483v-.175a92.976,92.976,0,0,0,11.286-.979v1.155Zm4.359-2.74a3.467,3.467,0,0,0,.294-1.53V233.32H206.4v-1.6h15.013l6.107,20.076L234,231.715h14.255v1.6h-4.52v17.206a75.854,75.854,0,0,1-8.558,5.067V233.765h-.107l-7.97,25.392q-2.811,1.069-5.757,1.969l-8.471-27.7v28.626a5.312,5.312,0,0,0,.124,1.232q-1.111.239-2.237.458Zm32.977-7.936a57.793,57.793,0,0,1-8.558,4.609v4.355h-4.707v1.712h17.652v-1.712h-4.386v-8.964Zm-18.059,7.883q-1.632.428-3.309.787l.613,2.005H224.8Z" transform="translate(-206.399 -231.715)" fill="#f36a10" fill-rule="evenodd"/>
        <path id="Path_2" data-name="Path 2" d="M374.65,266.483v-1.712h4.172v-6.224a56.187,56.187,0,0,0,8.826-5.744v11.968h5.082v1.712Zm4.172-13.01a73.6,73.6,0,0,0,8.852-6.044l-.026-14.11h5.34q4.079,0,6.214,1.908.153.135.3.285,1.448-1.839,2.8-3.8H374.543v1.6h4.279v20.153Zm25.323-21.31.3,9.662h-1.819a20,20,0,0,0-1.59-4.172q1.64-2.616,3.11-5.49Zm-7.351,11.483a58.408,58.408,0,0,1-5.579,6.065,4.675,4.675,0,0,1,2.04,1.224c.99,1.043,1.587,2.764,1.774,5.171h1.765Z" transform="translate(-346.149 -231.715)" fill="#f36a10" fill-rule="evenodd"/>
      </g>
      <path id="Path_3" data-name="Path 3" d="M228.782,177.233c-11.019,29.748-36.277,40.576-71.674,37.932C191.116,213.66,215.691,201.77,228.782,177.233Z" transform="translate(-157.108 -177.233)" fill="#f36a10" stroke="#f36a10" stroke-miterlimit="2.613" stroke-width="0.216" fill-rule="evenodd"/>
      <path id="Path_4" data-name="Path 4" d="M212.145,201.757a50.5,50.5,0,0,0,3.933-3.669,52.681,52.681,0,0,0,5.04-6.094q1.256-1.771,2.4-3.686a66.29,66.29,0,0,0,5.26-11.075,68.16,68.16,0,0,1-5.351,8.489l-.167.225c-13.944,18.666-36.452,27.9-66.155,29.218q4.261.318,8.324.373a108.722,108.722,0,0,0,11.286-.412q2.5-.227,4.9-.58,1.4-.206,2.775-.455a71.141,71.141,0,0,0,9.812-2.487q1.992-.665,3.9-1.446,2.4-.986,4.663-2.162,2.147-1.118,4.163-2.41A50.9,50.9,0,0,0,212.145,201.757Z" transform="translate(-157.108 -177.233)" fill="#ddc6c6" stroke="#1a1818" stroke-miterlimit="2.613" stroke-width="0.5" fill-rule="evenodd"/>
      <path id="Path_5" data-name="Path 5" d="M206.931,205.6a50.9,50.9,0,0,0,5.214-3.832,4,4,0,0,1,.393.319,6.772,6.772,0,0,1,1.774,4.522h1.765V198.1a52.7,52.7,0,0,0,5.04-6.1,19.5,19.5,0,0,1,.791,2.118h1.819l-.205-5.806a66.332,66.332,0,0,0,5.26-11.08,68.194,68.194,0,0,1-5.351,8.493l-.167.225c-13.944,18.675-36.452,27.916-66.155,29.231q4.261.318,8.324.373v.127h11.286v-.539q2.5-.227,4.9-.58l.391,1.119h1.819l.565-1.574a71.112,71.112,0,0,0,9.812-2.488v2.565H189.5v1.5h22.51v-1.5h-5.082Z" transform="translate(-157.108 -177.233)" fill="#fff" stroke="#f36a10" stroke-miterlimit="2.613" stroke-width="0.5" fill-rule="evenodd"/>
      <path id="Path_6" data-name="Path 6" d="M157.4,215.2q4.108.3,8.031.352v.127h11.286v-.539q2.5-.227,4.9-.58l.391,1.119h1.819l.565-1.574a71.112,71.112,0,0,0,9.812-2.488v2.565H189.5v1.5h22.51v-1.5h-5.082V205.6a50.9,50.9,0,0,0,5.214-3.832,4,4,0,0,1,.393.319,6.772,6.772,0,0,1,1.774,4.522h1.765V198.1a52.7,52.7,0,0,0,5.04-6.1,19.5,19.5,0,0,1,.791,2.118h1.819l-.205-5.806a66.332,66.332,0,0,0,5.26-11.08,63.875,63.875,0,0,1-5.346,8.655q-.339.461-.685.915c-13.756,18-36.43,27.091-65.572,28.376l-.071,0Z" transform="translate(-157.108 -177.233)" fill="#f8800b" stroke="#f8800b" stroke-width="1" fill-rule="evenodd"/>
    </g>
    <text id="MORTFUND" transform="translate(82.14 20.453)" font-size="30" font-family="Bahnschrift"><tspan x="0" y="0">MORTFUND</tspan></text>
  </g>
</svg>
