<svg xmlns="http://www.w3.org/2000/svg" width="83.964" height="72.57" viewBox="0 0 83.964 72.57">
  <path id="alert-triangle-fill" d="M83.806,57.616,54.515,9.04a13.1,13.1,0,0,0-22.073,0L3.151,57.616A11.457,11.457,0,0,0,2.96,69.073a12.87,12.87,0,0,0,11.228,6.492H72.77A12.87,12.87,0,0,0,84,69.226a11.457,11.457,0,0,0-.191-11.609ZM43.479,60.29A3.819,3.819,0,1,1,47.3,56.471,3.819,3.819,0,0,1,43.479,60.29ZM47.3,45.014a3.819,3.819,0,0,1-7.638,0V29.738a3.819,3.819,0,1,1,7.638,0Z" transform="translate(-1.519 -2.996)" fill="#fff"/>
</svg>
