<svg xmlns="http://www.w3.org/2000/svg" width="103.404" height="72.383" viewBox="0 0 103.404 72.383">
  <path id="Icon_awesome-hands" data-name="Icon awesome-hands" d="M33.089,31.385a5.17,5.17,0,1,0-8.272,6.2L30.973,45.8a2.583,2.583,0,0,1-.242,3.377l-2.068,2.068a2.569,2.569,0,0,1-3.813-.178L10.34,33.647V9.67A5.17,5.17,0,0,0,0,9.67V44.957A7.764,7.764,0,0,0,1.7,49.8L18.516,71.5a9.644,9.644,0,0,1,1.68,3.506,2.532,2.532,0,0,0,2.472,1.874H43.947A2.593,2.593,0,0,0,46.532,74.3V56.2A20.713,20.713,0,0,0,42.4,43.794ZM98.234,4.5a5.165,5.165,0,0,0-5.17,5.17V33.647L78.555,51.064a2.6,2.6,0,0,1-3.813.178l-2.068-2.068a2.583,2.583,0,0,1-.242-3.377l6.156-8.208a5.17,5.17,0,1,0-8.272-6.2L61.009,43.794A20.713,20.713,0,0,0,56.872,56.2V74.3a2.593,2.593,0,0,0,2.585,2.585H80.736a2.546,2.546,0,0,0,2.472-1.874,9.644,9.644,0,0,1,1.68-3.506l16.819-21.7a7.764,7.764,0,0,0,1.7-4.847V9.67A5.165,5.165,0,0,0,98.234,4.5Z" transform="translate(0 -4.5)" fill="#fff"/>
</svg>
