<svg xmlns="http://www.w3.org/2000/svg" width="150.602" height="69.231" viewBox="0 0 150.602 69.231">
  <path id="Icon_map-university" data-name="Icon map-university" d="M76.212,52.188c-17.012,0-31.465,4.947-40.906,12.7V79.311h81.818V64.889C107.684,57.135,93.227,52.188,76.212,52.188Zm75.119-7.4L76.014,10.08.729,44.787l12.55,5.743v8.833c-3.147.651-3.156,2.3-3.156,4.261a5.261,5.261,0,0,0,1.114,3.326l-4.3,9.214H22.288l-4.267-9.22a5.064,5.064,0,0,0,1.306-3.166c0-1.957-2.9-3.767-2.9-4.418V52.006l15.734,7.068v-.626c9.441-8.21,26.028-13.421,44.05-13.421s34.622,5.211,44.062,13.421v.626Z" transform="translate(-0.729 -10.08)" fill="#fff"/>
</svg>
