<svg xmlns="http://www.w3.org/2000/svg" width="86.437" height="81.034" viewBox="0 0 86.437 81.034">
  <path id="Icon_awesome-briefcase-medical" data-name="Icon awesome-briefcase-medical" d="M78.333,18.457H64.827v-8.1a8.106,8.106,0,0,0-8.1-8.1H29.713a8.106,8.106,0,0,0-8.1,8.1v8.1H8.1A8.106,8.106,0,0,0,0,26.56V75.181a8.106,8.106,0,0,0,8.1,8.1h70.23a8.106,8.106,0,0,0,8.1-8.1V26.56A8.106,8.106,0,0,0,78.333,18.457Zm-45.919-5.4H54.023v5.4H32.414ZM59.425,54.922a1.355,1.355,0,0,1-1.351,1.351H48.621v9.454a1.355,1.355,0,0,1-1.351,1.351h-8.1a1.355,1.355,0,0,1-1.351-1.351V56.273H28.362a1.355,1.355,0,0,1-1.351-1.351v-8.1a1.355,1.355,0,0,1,1.351-1.351h9.454V36.014a1.355,1.355,0,0,1,1.351-1.351h8.1a1.355,1.355,0,0,1,1.351,1.351v9.454h9.454a1.355,1.355,0,0,1,1.351,1.351Z" transform="translate(0 -2.25)" fill="#fff"/>
</svg>
