<svg xmlns="http://www.w3.org/2000/svg" width="27.875" height="27.875" viewBox="0 0 27.875 27.875">
  <path id="Icon_awesome-copyright" data-name="Icon awesome-copyright" d="M14.5.563A13.938,13.938,0,1,0,28.438,14.5,13.937,13.937,0,0,0,14.5.563ZM21.083,20.05a8.39,8.39,0,0,1-6.174,2.57,7.917,7.917,0,0,1-8.12-8.181A7.914,7.914,0,0,1,14.869,6.38a8.094,8.094,0,0,1,5.812,2.186.674.674,0,0,1,.07.822l-1.258,1.948a.675.675,0,0,1-1.025.129,5.717,5.717,0,0,0-3.478-1.342A4.022,4.022,0,0,0,10.836,14.4a4.206,4.206,0,0,0,4.174,4.479,5.51,5.51,0,0,0,3.684-1.609.675.675,0,0,1,1.04.059l1.38,1.887a.674.674,0,0,1-.031.835Z" transform="translate(-0.563 -0.563)" fill="#fff"/>
</svg>
