<svg xmlns="http://www.w3.org/2000/svg" width="25.642" height="25.64" viewBox="0 0 25.642 25.64">
  <path id="Icon_ionic-ios-call" data-name="Icon ionic-ios-call" d="M29.391,24.579a21.537,21.537,0,0,0-4.5-3.01c-1.348-.647-1.842-.634-2.8.053-.794.574-1.308,1.108-2.223.908s-2.717-1.562-4.466-3.3S12.3,15.674,12.1,14.76s.34-1.428.908-2.223c.688-.955.708-1.448.053-2.8a21.112,21.112,0,0,0-3.01-4.5c-.981-.981-1.2-.768-1.742-.574a9.914,9.914,0,0,0-1.6.848A4.813,4.813,0,0,0,4.8,7.537c-.38.821-.821,2.35,1.422,6.341a35.384,35.384,0,0,0,6.221,8.3h0l.007.007.007.007h0a35.522,35.522,0,0,0,8.3,6.221c3.992,2.243,5.52,1.8,6.341,1.422a4.731,4.731,0,0,0,2.023-1.916,9.914,9.914,0,0,0,.848-1.6C30.159,25.78,30.379,25.56,29.391,24.579Z" transform="translate(-4.49 -4.502)" fill="#f36a10"/>
</svg>
