<svg id="Instagram" xmlns="http://www.w3.org/2000/svg" width="37" height="37" viewBox="0 0 37 37">
  <circle id="Ellipse_6" data-name="Ellipse 6" cx="18.5" cy="18.5" r="18.5" fill="#c32aa3" opacity="0"/>
  <path id="Icon_awesome-instagram" data-name="Icon awesome-instagram" d="M10.112,7.165A5.185,5.185,0,1,0,15.3,12.35,5.177,5.177,0,0,0,10.112,7.165Zm0,8.557a3.371,3.371,0,1,1,3.371-3.371,3.377,3.377,0,0,1-3.371,3.371Zm6.607-8.769a1.209,1.209,0,1,1-1.209-1.209A1.207,1.207,0,0,1,16.719,6.953ZM20.153,8.18a5.985,5.985,0,0,0-1.634-4.238,6.025,6.025,0,0,0-4.238-1.634c-1.67-.095-6.675-.095-8.344,0A6.016,6.016,0,0,0,1.7,3.938,6,6,0,0,0,.066,8.176c-.095,1.67-.095,6.675,0,8.344A5.985,5.985,0,0,0,1.7,20.758a6.032,6.032,0,0,0,4.238,1.634c1.67.095,6.675.095,8.344,0a5.985,5.985,0,0,0,4.238-1.634,6.025,6.025,0,0,0,1.634-4.238c.095-1.67.095-6.67,0-8.34ZM18,18.312a3.413,3.413,0,0,1-1.923,1.923c-1.331.528-4.49.406-5.962.406s-4.635.117-5.962-.406a3.413,3.413,0,0,1-1.923-1.923c-.528-1.331-.406-4.49-.406-5.962S1.7,7.715,2.228,6.388A3.413,3.413,0,0,1,4.15,4.466c1.331-.528,4.49-.406,5.962-.406s4.635-.117,5.962.406A3.413,3.413,0,0,1,18,6.388c.528,1.331.406,4.49.406,5.962S18.524,16.985,18,18.312Z" transform="translate(8.825 6.537)" fill="#fff"/>
</svg>
