<svg id="Twitter" xmlns="http://www.w3.org/2000/svg" width="37" height="37" viewBox="0 0 37 37">
  <circle id="Ellipse_4" data-name="Ellipse 4" cx="18.5" cy="18.5" r="18.5" fill="#1da1f2" opacity="0"/>
  <path id="Icon_awesome-twitter" data-name="Icon awesome-twitter" d="M21.494,8.23c.015.213.015.426.015.638A13.874,13.874,0,0,1,7.54,22.838,13.875,13.875,0,0,1,0,20.634a10.157,10.157,0,0,0,1.186.061,9.833,9.833,0,0,0,6.1-2.1,4.919,4.919,0,0,1-4.591-3.405,6.192,6.192,0,0,0,.927.076A5.193,5.193,0,0,0,4.91,15.1,4.911,4.911,0,0,1,.973,10.282v-.061a4.945,4.945,0,0,0,2.219.623,4.917,4.917,0,0,1-1.52-6.567A13.956,13.956,0,0,0,11.8,9.416a5.543,5.543,0,0,1-.122-1.125,4.915,4.915,0,0,1,8.5-3.359,9.667,9.667,0,0,0,3.116-1.186,4.9,4.9,0,0,1-2.159,2.706,9.843,9.843,0,0,0,2.827-.76A10.554,10.554,0,0,1,21.494,8.23Z" transform="translate(6.541 5.394)" fill="#fff"/>
</svg>
